<?xml version="1.0" standalone="no"?>
<!DOCTYPE svg PUBLIC "-//W3C//DTD SVG 20010904//EN"
 "http://www.w3.org/TR/2001/REC-SVG-20010904/DTD/svg10.dtd">
<svg version="1.0" xmlns="http://www.w3.org/2000/svg"
 width="100.000000pt" height="100.000000pt" viewBox="0 0 100.000000 100.000000"
 preserveAspectRatio="xMidYMid meet">
<metadata>
Created by potrace 1.11, written by Peter Selinger 2001-2013
</metadata>
<g transform="translate(0.000000,100.000000) scale(0.100000,-0.100000)"
fill="#000000" stroke="none">
<path d="M390 869 c-33 -9 -92 -35 -132 -58 -74 -44 -110 -53 -131 -32 -8 8
-8 14 2 24 10 10 14 9 22 -5 12 -22 39 -12 39 13 0 25 -41 44 -75 35 -43 -11
-68 -43 -63 -83 3 -28 -1 -41 -24 -63 -33 -33 -29 -54 14 -76 21 -11 29 -21
25 -34 -3 -10 4 -33 15 -51 14 -23 16 -34 8 -39 -7 -4 -13 -30 -13 -59 -1 -34
-6 -51 -15 -51 -7 0 -25 -12 -39 -27 l-27 -26 44 -39 c29 -26 40 -42 33 -49
-31 -31 25 -97 72 -85 29 7 34 26 6 26 -24 0 -34 25 -16 40 20 17 56 6 128
-39 163 -103 308 -101 468 5 67 45 105 55 115 29 9 -22 -5 -38 -22 -24 -11 9
-14 8 -14 -4 0 -40 61 -44 93 -5 13 15 17 32 13 53 -5 26 -1 34 29 55 19 14
35 29 35 33 0 10 -50 57 -62 57 -5 0 -7 14 -4 32 5 32 -7 66 -28 80 -7 5 -5 8
5 8 21 0 42 49 37 86 -3 25 2 31 35 46 l37 17 -19 31 c-10 17 -28 38 -39 46
-12 8 -19 21 -16 29 12 31 -6 66 -42 81 -36 15 -58 10 -84 -20 -10 -13 -10
-19 0 -31 11 -14 14 -13 25 1 6 10 17 14 23 10 17 -10 15 -24 -6 -35 -14 -7
-33 -1 -83 28 -145 84 -248 103 -369 70z"/>
</g>
</svg>
